<?xml version="1.0" encoding="UTF-8"?><svg xmlns="http://www.w3.org/2000/svg" xmlns:xlink="http://www.w3.org/1999/xlink" viewBox="0 0 368.35 422.68"><defs><style>.cls-1{fill:#749a3f;stroke:#749a3f;}.cls-1,.cls-2,.cls-3,.cls-4,.cls-5,.cls-6,.cls-7{stroke-miterlimit:10;}.cls-2{fill:url(#radial-gradient);}.cls-2,.cls-3,.cls-4,.cls-5,.cls-6{stroke:#f7c945;}.cls-2,.cls-3,.cls-4,.cls-5,.cls-6,.cls-7{stroke-width:.5px;}.cls-3{fill:#f7c945;}.cls-4{fill:url(#radial-gradient-4);}.cls-5{fill:url(#radial-gradient-3);}.cls-6{fill:url(#radial-gradient-2);}.cls-7{fill:#fde17a;stroke:#fde17a;}</style><radialGradient id="radial-gradient" cx="239.48" cy="66.49" fx="247.47" fy="66.49" r="8.03" gradientTransform="translate(2.17 -12.81) rotate(2.81)" gradientUnits="userSpaceOnUse"><stop offset=".57" stop-color="#f4a323"/><stop offset="1" stop-color="#f7c945"/></radialGradient><radialGradient id="radial-gradient-2" cx="349.41" cy="-8.6" fx="357.4" fy="-8.6" r="8.03" gradientTransform="translate(-16.26 -70.53) rotate(24.68)" gradientUnits="userSpaceOnUse"><stop offset=".57" stop-color="#f4a323"/><stop offset="1" stop-color="#f7c945"/></radialGradient><radialGradient id="radial-gradient-3" cx="364.84" cy="102.79" fx="372.83" fy="102.79" r="8.03" gradientTransform="translate(142.66 -173.39) rotate(54) scale(.84 1)" xlink:href="#radial-gradient-2"/><radialGradient id="radial-gradient-4" cx="99.36" cy="135.19" fx="99.36" fy="135.19" r="20.44" gradientTransform="translate(218.81 17.38) rotate(81.71)" xlink:href="#radial-gradient-2"/></defs><g id="stem_trace"><path class="cls-1" d="M59.71,418.34s-10-39-11-54l-1-15s-2-25-2-42,2-28,2-28c0,0,2-27,7-49s17-48,17-48l7-15,9-16s1.67-4,4.83-1,1.17,6,1.17,6l-9,15-5.03,11.21-9.97,23.79-7,25-3.61,21.16s-4.39,29.84-4.39,54.84,2,43,2,43h0c-.17-1.12,1.92,18.77,3,24,.2.95,1.85,9.24,2,10,2.15,10.62,7.42,30.85,7.42,30.85,0,0,1.58,3.15-2.42,6.15s-7-3-7-3Z"/></g><g id="flower_trace"><path class="cls-3" d="M109.4,119.34s8.97-13.97,12.06-20.62c3.09-6.65,10.13-23.09,10.13-23.09,0,0-9.98-2.7-12.14-13.95-2.16-11.25.65-15.61.65-15.61,0,0,1.33,10.71,2.69,14.06,1.37,3.34,4.96,6.88,4.96,6.88h0s-.81-4.22-1.06-9.31c-.11-2.23.03-5.8.6-8.24.74-3.13,1.97-4.9,1.97-4.9,0,0-.81,3.79-.6,8.24.25,5.45,2.38,12.41,2.69,14.06.36,1.88,1.1,1.94,1.1,1.94,0,0,.29-2.28,4.5-10.67,4.21-8.39,7.29-11.35,7.29-11.35,0,0-2.55,9.46-4.53,14.36-1.97,4.9-2.82,8.05-3.38,8.92s.83.53.83.53l1.95-1.21s4.35-4.03,7.26-7.67c1.31-1.64,3.66-4.41,4.75-5.58,3.8-4.09,5.02-4.18,5.02-4.18,0,0-7.02,12.76-10.65,16.59-3.63,3.83-4.19,4.71-4.19,4.71l11.68-3.6,10.31-6.94s2.03-.82.27,1.41c-2.38,3.01-5.82,6.47-7.26,7.67-2.51,2.09-5.85,3.64-10.58,5.54-4.73,1.9-11.66-.08-11.66-.08l-10.13,23.09-9.57,22.22s-1.68,2.62-.85,3.15,3.34-1.56,3.34-1.56l13.68-12.18,2.51-2.09s-.61-4.35.04-7.37c.47-2.18,2.12-5.01,4.48-6.99,3.41-2.85,6.97-5.39,6.97-5.39h0s-4.75,5.58-6.99,9.07-2.82,8.05-2.82,8.05l8.36-5.73,7.8-4.86c1.07-1.23,0,0-3.63,3.83-1.59,1.68-10.04,8.35-10.04,8.35,0,0,6.39-.83,7.78-1.17s9.19-5.2,9.19-5.2c0,0-.96,2.98-4.75,5.58-8.36,5.73-16.12,3.22-16.12,3.22,0,0-8.12,10.82-12.31,15.53-4.19,4.71-3.36,5.24-3.36,5.24"/><path class="cls-3" d="M108.71,119.34s-1,0,0-6,2-19,2-19c0,0,8-2,12-11,1.82-4.09,1-7,1-7,0,0-4,8-5,9s-6,5-6,5c0,0,3.56-9.81,4-12,1-5,1.24-6.55,1-5l-4,8-4,9s-2-4-2-8,1-11,1-11h0s-1.65,3.91-3,8c-.94,2.83-.79,5.99,0,8,1.1,2.79,4,6,4,6l-1,3-5,17s-1,3-2,3-1-3-1-3l-4-23-4-24s7-2,10-6,5-7,6-10c.58-1.73,1.62-6.32,2-10,.28-2.72-1-1-1-1l-5,11-8,9s0-1,1-6,0-19,0-19c0,0-.99.71-2,6-.29,1.52-.78,4.99-1,7-.5,4.46-2,10-2,10l-1,2s-1,1-1,0-1-4-2-9-4-14-4-14c0,0-1,4,0,13s2,11,2,11c0,0-.66.34-2-1-1.17-1.17-6.8-5.71-10-10-2.61-3.5-4-7-4-7,0,0-.08,2.08,1,5,.85,2.28,2.68,5.25,4,7,3,4,6,7,6,7h0s-5-1-8-3-10-10-10-10c0,0,0,5,8,13s18,5,18,5c0,0,3,17,4,24s1,23,1,23l-.38,3.14"/><path class="cls-3" d="M116.39,139.69s-.12-.69,5.71-1.01c5.84-.32,18.34-1.82,18.34-1.82,0,0,2.89,5.2,11.95,6.45,4.12.57,6.79-.49,6.79-.49,0,0-8.11-1.42-9.19-1.94s-5.5-3.31-5.5-3.31c0,0,9.78.81,11.92.74,4.88-.15,6.39-.25,4.88-.15l-8.11-1.42-9.06-1.25s3.56-2.06,7.37-2.74,10.6-1.17,10.6-1.17h0s-3.93-.48-7.99-.73c-2.81-.17-5.8.46-7.62,1.35-2.52,1.23-5.22,3.78-5.22,3.78l-2.98-.19-16.8-.59s-2.98-.19-3.1-.88,2.73-1.2,2.73-1.2l21.41-6.65,22.37-6.82s2.76,4.51,6.94,5.91,7.28,2.28,10.26,2.46c1.71.11,6.21.05,9.77-.3,2.63-.26.83-.86.83-.86l-11.09-1.6-9.55-4.02s.95-.17,5.84-.32c4.88-.15,18.09-3.21,18.09-3.21,0,0-.79-.57-5.96-.37-1.49.06-4.85.31-6.79.49-4.31.41-9.77.3-9.77.3l-2.03-.35s-1.08-.52-.12-.69,3.69-1.37,8.33-2.9,12.84-5.13,12.84-5.13c0,0-3.93-.02-12.38,2.2-8.45,2.21-10.23,3.24-10.23,3.24,0,0-.41-.4.71-1.55.97-1.01,4.6-5.67,8.3-8.61,3.01-2.4,6.18-3.95,6.18-3.95,0,0-1.99.29-4.64,1.54-2.07.97-4.67,2.75-6.18,3.95-3.44,2.75-5.93,5.34-5.93,5.34h0s.34-3.63,1.87-6.05,8.3-8.61,8.3-8.61c0,0-4.76.84-11.4,7.73-6.64,6.89-2.55,13.31-2.55,13.31,0,0-15.82,4.95-22.37,6.82s-21.78,4.58-21.78,4.58l-2.68.36"/><path class="cls-3" d="M117.79,141.53s13.52,7.54,19.86,10.06c6.34,2.53,22,8.22,22,8.22,0,0,1.77-9.13,11.97-11.54,10.2-2.41,14.43-.05,14.43-.05,0,0-9.77,1.64-12.75,3.01-2.98,1.37-5.98,4.76-5.98,4.76h0s3.83-.9,8.5-1.33c2.05-.19,5.34-.21,7.64.21,2.93.54,4.65,1.58,4.65,1.58,0,0-3.55-.58-7.64-.21-5,.45-11.26,2.66-12.75,3.01-1.71.4-1.71,1.07-1.71,1.07,0,0,2.12.17,10.15,3.64,8.03,3.47,10.98,6.12,10.98,6.12,0,0-8.89-1.92-13.55-3.51-4.65-1.58-7.62-2.22-8.46-2.7s-.43.77-.43.77l1.26,1.71s4.03,3.77,7.59,6.25c1.6,1.12,4.32,3.13,5.48,4.07,4.04,3.27,4.21,4.37,4.21,4.37,0,0-12.26-5.82-16.05-8.95-3.79-3.13-4.64-3.6-4.64-3.6l4.16,10.42,7.14,9.04s.9,1.8-1.28.3c-2.95-2.03-6.38-5-7.59-6.25-2.1-2.19-3.78-5.14-5.86-9.34s-.76-10.55-.76-10.55l-22-8.22-21.15-7.75s-2.53-1.41-2.96-.64,1.67,2.96,1.67,2.96l12.21,11.87,2.1,2.19s3.96-.73,6.79-.26c2.04.34,4.77,1.71,6.76,3.77,2.87,2.97,5.47,6.08,5.47,6.08h0s-5.48-4.07-8.86-5.95-7.62-2.22-7.62-2.22l5.88,7.33,5.04,6.86c1.21.91,0,0-3.79-3.13-1.66-1.37-8.41-8.74-8.41-8.74,0,0,1.23,5.74,1.64,6.99s5.45,8.1,5.45,8.1c0,0-2.81-.74-5.48-4.07-5.88-7.33-4.13-14.45-4.13-14.45,0,0-10.55-6.9-15.19-10.49-4.64-3.6-5.07-2.83-5.07-2.83"/><path class="cls-3" d="M111.08,152.21s6.32,14.88,9.9,21.04,12.73,20.93,12.73,20.93c0,0,6.95-6.24,16.62-1.57,9.67,4.67,11.64,9.32,11.64,9.32,0,0-8.85-5.02-12.09-5.84-3.23-.82-7.69-.02-7.69-.02h0s3.63,1.75,7.65,4.44c1.76,1.18,4.43,3.3,6.02,5.13,2.04,2.34,2.79,4.3,2.79,4.3,0,0-2.51-2.77-6.02-5.13-4.3-2.88-10.67-5.16-12.09-5.84-1.62-.78-2.02-.24-2.02-.24,0,0,1.6,1.51,5.97,9.54,4.37,8.02,5.13,12.09,5.13,12.09,0,0-5.99-7.33-8.78-11.63-2.79-4.3-4.79-6.75-5.18-7.68s-.81.35-.81.35l-.02,2.21s.96,5.67,2.32,9.99c.61,1.95,1.58,5.34,1.95,6.85,1.27,5.27.74,6.27.74,6.27,0,0-6.34-12.67-7.5-17.67-1.16-4.99-1.56-5.92-1.56-5.92l-2.96,11.13.28,11.96s-.37,2.04-1.21-.58c-1.14-3.56-2.11-8.19-2.32-9.99-.37-3.13.07-6.62.93-11.37s5.77-9.03,5.77-9.03l-12.73-20.93-12.34-20s-1.18-2.79-2-2.44-.44,3.48-.44,3.48l2.64,17.53.37,3.13s3.63,1.98,5.62,4.2c1.44,1.6,2.8,4.48,3.16,7.44.51,4.27.72,8.47.72,8.47h0s-1.95-6.85-3.53-10.57-4.79-6.75-4.79-6.75l.3,9.75-.1,8.82c.42,1.53,0,0-1.16-4.99-.51-2.19-1.48-12.54-1.48-12.54,0,0-2.49,5.45-2.91,6.72s-.51,10.1-.51,10.1c0,0-1.81-2.43-1.95-6.85-.3-9.75,5.42-14.37,5.42-14.37,0,0-4.32-12.43-5.88-18.36-1.56-5.92-2.37-5.58-2.37-5.58"/><path class="cls-3" d="M83.9,120.99s-10.51-12.86-15.87-17.86-18.81-16.79-18.81-16.79c0,0-5.66,8.65-17.03,7.21-11.36-1.44-14.64-5.45-14.64-5.45,0,0,10.6,2.06,14.2,1.79,3.6-.26,8.08-2.58,8.08-2.58h0s-4.26-.54-9.18-1.88c-2.16-.59-5.51-1.82-7.65-3.13-2.75-1.67-4.05-3.39-4.05-3.39,0,0,3.36,1.94,7.65,3.13,5.26,1.45,12.54,1.58,14.2,1.79,1.9.24,2.18-.44,2.18-.44,0,0-2.08-.98-8.75-7.59-6.67-6.61-8.54-10.45-8.54-10.45,0,0,8.2,5.36,12.25,8.75s6.78,5.18,7.44,5.98.76-.62.76-.62l-.55-2.23s-2.49-5.39-5.04-9.28c-1.15-1.75-3.05-4.84-3.83-6.25-2.71-4.88-2.41-6.07-2.41-6.07,0,0,9.96,10.62,12.48,15.27,2.52,4.64,3.18,5.44,3.18,5.44l.2-12.22-3.41-11.96s-.15-2.18,1.42.18c2.13,3.2,4.35,7.54,5.04,9.28,1.21,3.03,1.65,6.69,1.99,11.78.34,5.09-3.69,11.06-3.69,11.06l18.81,16.79,18.16,15.98s1.97,2.41,2.73,1.79-.44-3.66-.44-3.66l-7.35-16.78-1.21-3.03s-4.32-.77-6.99-2.32c-1.93-1.12-4.11-3.57-5.25-6.43-1.65-4.13-2.96-8.3-2.96-8.3h0s3.83,6.25,6.46,9.46,6.78,5.18,6.78,5.18l-2.86-9.73-2.2-8.92c-.84-1.4,0,0,2.52,4.64,1.11,2.04,4.83,12.14,4.83,12.14,0,0,1.19-6.33,1.3-7.76s-2.09-10.35-2.09-10.35c0,0,2.54,1.83,3.83,6.25,2.86,9.73-1.94,16.33-1.94,16.33,0,0,7.77,11.07,10.95,16.51,3.18,5.44,3.94,4.82,3.94,4.82"/><path class="cls-3" d="M86,121.39s-.21.9-5.79-1.35c-5.58-2.25-17.9-6.07-17.9-6.07,0,0-.25-7.63-8.09-13.25-3.56-2.55-6.54-2.47-6.54-2.47,0,0,6.87,5.39,7.63,6.51s3.56,6.51,3.56,6.51c0,0-8.71-5.41-10.73-6.29-4.61-2.02-6.06-2.59-4.61-2.02l6.87,5.39,7.84,5.62s-4.28.89-8.13,0-10.4-3.38-10.4-3.38h0s3.43,2.36,7.08,4.49c2.53,1.48,5.6,2.06,7.71,1.8,2.92-.36,6.62-2.24,6.62-2.24l2.68,1.57,15.34,8.32s2.68,1.57,2.47,2.47-3.1.22-3.1.22l-23.02-1.59-23.98-1.82s-.46-6.73-3.69-10.33c-3.23-3.59-5.7-6.06-8.38-7.64-1.54-.91-5.75-2.87-9.22-4.05-2.56-.87-1.17.67-1.17.67l9.56,6.97,7,9.21s-.96-.23-5.58-2.25c-4.61-2.02-18.32-4.28-18.32-4.28,0,0,.47,1.05,5.37,3.15,1.41.6,4.65,1.82,6.54,2.47,4.2,1.45,9.22,4.05,9.22,4.05l1.72,1.35s.75,1.12-.21.9-4.07,0-9.1-.23-14.34.44-14.34.44c0,0,3.65,1.8,12.53,2.93,8.89,1.13,11.03.68,11.03.68,0,0,.19.67-1.38,1.57-1.38.79-6.93,4.82-11.74,6.72-3.92,1.56-7.59,2.01-7.59,2.01,0,0,1.99.54,5.03.23,2.38-.25,5.62-1.23,7.59-2.01,4.49-1.79,8.01-3.81,8.01-3.81h0s-2.01,4.26-4.57,6.5c-2.56,2.24-11.74,6.72-11.74,6.72,0,0,4.82,1.13,14.21-4.25,9.39-5.38,8.59-15.03,8.59-15.03,0,0,17.02,1.14,23.98,1.82s22.39,4.28,22.39,4.28l1.67,1.08"/><path class="cls-3" d="M83.65,147.49s-13.22,8.74-18.48,13.34-17.76,16.22-17.76,16.22c0,0,7.63,6.16,5.15,16.76-2.48,10.61-6.61,13.34-6.61,13.34,0,0,3-9.83,3.11-13.26.11-3.43-1.65-7.87-1.65-7.87h0s-.93,3.98-2.69,8.5c-.77,1.98-2.27,5.04-3.72,6.94-1.85,2.44-3.61,3.51-3.61,3.51,0,0,2.17-2.99,3.72-6.94,1.89-4.84,2.74-11.7,3.11-13.26.42-1.78-.2-2.11-.2-2.11,0,0-1.14,1.87-8.05,7.57-6.92,5.69-10.74,7.1-10.74,7.1,0,0,5.89-7.25,9.5-10.76s5.58-5.93,6.4-6.47-.52-.78-.52-.78l-2.17.31s-5.35,1.85-9.29,3.9c-1.78.92-4.89,2.44-6.3,3.04-4.89,2.11-5.99,1.72-5.99,1.72,0,0,11.05-8.42,15.69-10.38,4.65-1.95,5.47-2.5,5.47-2.5l-11.56-1.32-11.66,2.11s-2.08-.06.31-1.33c3.24-1.71,7.57-3.41,9.29-3.9,2.99-.86,6.5-.94,11.35-.78,4.85.15,10.11,4.52,10.11,4.52l17.76-16.22,16.94-15.68s2.48-1.64,1.96-2.42-3.51.08-3.51.08l-16.62,5.39-2.99.86s-1.15,4.01-2.89,6.39c-1.26,1.72-3.79,3.55-6.61,4.37-4.07,1.18-8.15,2.03-8.15,2.03h0s6.3-3.04,9.6-5.23c3.3-2.18,5.58-5.93,5.58-5.93l-9.5,1.8-8.67,1.25c-1.41.67,0,0,4.65-1.95,2.04-.86,11.97-3.44,11.97-3.44,0,0-5.88-1.71-7.22-1.95s-10.01,1.02-10.01,1.02c0,0,1.99-2.23,6.3-3.04,9.5-1.8,15.27,3.35,15.27,3.35,0,0,11.25-6.32,16.72-8.82,5.47-2.5,4.96-3.28,4.96-3.28"/><path class="cls-3" d="M99.2,154.7s-3.78,14.11-4.19,20.62-.68,22.51-.68,22.51c0,0,13.2.7,21.3,10.43,8.1,9.73,6.92,14.15,6.92,14.15,0,0-6.85-9.4-10.12-12.17-3.27-2.77-9.28-5.32-9.28-5.32h0s3.04,3.65,5.84,8.18c1.23,1.99,2.82,5.22,3.34,7.51.66,2.94.07,4.75.07,4.75,0,0-.91-3.55-3.34-7.51-2.98-4.85-8.94-10.74-10.12-12.17-1.36-1.63-2.26-1.55-2.26-1.55,0,0,.78,2.1-.1,10.37-.88,8.27-3.07,11.47-3.07,11.47,0,0-1.62-8.94-1.69-13.69s-.61-7.73-.37-8.61-1.25-.33-1.25-.33l-1.72,1.43s-3.19,4.38-4.86,8.15c-.75,1.7-2.18,4.59-2.9,5.84-2.51,4.33-3.92,4.62-3.92,4.62,0,0,2.06-12.69,4.49-16.76s2.67-4.96,2.67-4.96l-12.12,5.26-8.84,8.03s-2.01,1.09-1.01-1.22c1.35-3.12,3.74-6.82,4.86-8.15,1.96-2.31,5.16-4.29,9.86-6.81s13.91-1.95,13.91-1.95l.68-22.51.44-21.63s.71-2.65-.54-2.98-3.21,1.98-3.21,1.98l-10.26,13.32-1.96,2.31s2.87,3.8,3.58,6.63c.51,2.04-.05,4.87-1.89,7.06-2.66,3.15-5.64,6.05-5.64,6.05h0s2.9-5.84,3.85-9.37-.61-7.73-.61-7.73l-7.12,6.6-6.89,5.72c-.66,1.29,0,0,2.43-4.08,1.07-1.79,7.83-9.25,7.83-9.25,0,0-7.19,1.86-8.67,2.4s-8.37,6.27-8.37,6.27c0,0-.33-2.84,2.9-5.84,7.12-6.6,17.59-5.69,17.59-5.69,0,0,4.32-11.13,6.99-16.09,2.67-4.96,1.42-5.29,1.42-5.29"/></g><g id="center_trace"><ellipse class="cls-4" cx="99.36" cy="135.19" rx="20.41" ry="20.47" transform="translate(-48.75 214.02) rotate(-81.71)"/></g></svg>